<svg width="25" height="20" viewBox="0 0 25 20" fill="none" xmlns="http://www.w3.org/2000/svg">
<g clip-path="url(#clip0_100_1912)">
<path d="M7.68901 6.85165C8.68965 6.85165 9.50082 6.04048 9.50082 5.03984C9.50082 4.0392 8.68965 3.22803 7.68901 3.22803C6.68837 3.22803 5.8772 4.0392 5.8772 5.03984C5.8772 6.04048 6.68837 6.85165 7.68901 6.85165Z" fill="url(#paint0_linear_100_1912)" stroke="#F8AF18" stroke-width="0.181181" stroke-miterlimit="10"/>
<path d="M7.68939 2.02306V0.872559M7.68939 9.2069V8.0564M9.8228 2.91085L10.6381 2.10006M4.74519 7.98392L5.56051 7.17314M5.56051 2.91085L4.74519 2.09553M10.6381 7.98845L9.8228 7.17314M3.52222 5.03973H4.67272M11.8566 5.03973H10.7061" stroke="#FBBF24" stroke-width="0.543544" stroke-miterlimit="10" stroke-linecap="round"/>
</g>
<g clip-path="url(#clip1_100_1912)">
<path d="M12.8232 7.67605C12.8232 8.06527 12.9779 8.43855 13.2531 8.71378C13.5283 8.989 13.9016 9.14362 14.2908 9.14362H20.1701V9.13909L20.2743 9.14362C20.6633 9.13879 21.0368 8.99027 21.3229 8.72662C21.609 8.46298 21.7875 8.10284 21.8241 7.71551C21.8606 7.32817 21.7526 6.94101 21.5209 6.62851C21.2891 6.31602 20.95 6.10026 20.5687 6.02277C20.6128 5.74752 20.5775 5.46541 20.4671 5.20947C20.3567 4.95352 20.1756 4.73431 19.9452 4.5775C19.7147 4.42069 19.4444 4.33276 19.1657 4.324C18.8871 4.31523 18.6118 4.386 18.3719 4.52802C18.0972 4.08016 17.6713 3.74534 17.1712 3.58405C16.6712 3.42277 16.1299 3.44567 15.6453 3.64861C15.1606 3.85155 14.7645 4.22115 14.5286 4.69062C14.2926 5.16009 14.2324 5.69847 14.3588 6.20848H14.2908C13.9024 6.20848 13.5298 6.36247 13.2547 6.63672C12.9796 6.91096 12.8244 7.28308 12.8232 7.67152V7.67605Z" fill="url(#paint1_linear_100_1912)" stroke="#848B98" stroke-width="0.0452953" stroke-miterlimit="10"/>
</g>
<g filter="url(#filter0_d_100_1912)">
<path d="M17.013 7.07808L16.8998 7.08261C17.1171 6.20272 17.0128 5.27413 16.6057 4.46438C16.1986 3.65463 15.5155 3.01703 14.6797 2.66662C13.8438 2.31621 12.9103 2.27606 12.0474 2.55341C11.1846 2.83077 10.4492 3.40737 9.97413 4.17918C9.58951 3.9507 9.1513 3.82801 8.70395 3.82355C8.25661 3.81909 7.81604 3.93302 7.42694 4.15379C7.03784 4.37455 6.71405 4.6943 6.48841 5.08059C6.26277 5.46689 6.14331 5.90599 6.14214 6.35335C6.14334 6.48999 6.15546 6.62631 6.17838 6.76101C5.51068 6.88442 4.91337 7.25329 4.50402 7.79503C4.09466 8.33676 3.90293 9.01211 3.96655 9.68813C4.03018 10.3641 4.34455 10.9919 4.8478 11.4477C5.35104 11.9035 6.00669 12.1545 6.68569 12.1512L6.86687 12.1421V12.1512H17.013C17.6858 12.1512 18.3309 11.8839 18.8066 11.4082C19.2823 10.9325 19.5496 10.2873 19.5496 9.61461C19.5496 8.94188 19.2823 8.29671 18.8066 7.82101C18.3309 7.34532 17.6858 7.07808 17.013 7.07808Z" fill="url(#paint2_linear_100_1912)"/>
<path d="M17.013 7.07808L16.8998 7.08261C17.1171 6.20272 17.0128 5.27413 16.6057 4.46438C16.1986 3.65463 15.5155 3.01703 14.6797 2.66662C13.8438 2.31621 12.9103 2.27606 12.0474 2.55341C11.1846 2.83077 10.4492 3.40737 9.97413 4.17918C9.58951 3.9507 9.1513 3.82801 8.70395 3.82355C8.25661 3.81909 7.81604 3.93302 7.42694 4.15379C7.03784 4.37455 6.71405 4.6943 6.48841 5.08059C6.26277 5.46689 6.14331 5.90599 6.14214 6.35335C6.14334 6.48999 6.15546 6.62631 6.17838 6.76101C5.51068 6.88442 4.91337 7.25329 4.50402 7.79503C4.09466 8.33676 3.90293 9.01211 3.96655 9.68813C4.03018 10.3641 4.34455 10.9919 4.8478 11.4477C5.35104 11.9035 6.00669 12.1545 6.68569 12.1512L6.86687 12.1421V12.1512H17.013C17.6858 12.1512 18.3309 11.8839 18.8066 11.4082C19.2823 10.9325 19.5496 10.2873 19.5496 9.61461C19.5496 8.94188 19.2823 8.29671 18.8066 7.82101C18.3309 7.34532 17.6858 7.07808 17.013 7.07808Z" stroke="#E6EFFC" stroke-width="0.271772" stroke-miterlimit="10"/>
</g>
<defs>
<filter id="filter0_d_100_1912" x="0.818604" y="1.23511" width="23.8669" height="18.052" filterUnits="userSpaceOnUse" color-interpolation-filters="sRGB">
<feFlood flood-opacity="0" result="BackgroundImageFix"/>
<feColorMatrix in="SourceAlpha" type="matrix" values="0 0 0 0 0 0 0 0 0 0 0 0 0 0 0 0 0 0 127 0" result="hardAlpha"/>
<feOffset dx="1" dy="3"/>
<feGaussianBlur stdDeviation="2"/>
<feComposite in2="hardAlpha" operator="out"/>
<feColorMatrix type="matrix" values="0 0 0 0 0 0 0 0 0 0 0 0 0 0 0 0 0 0 0.25 0"/>
<feBlend mode="normal" in2="BackgroundImageFix" result="effect1_dropShadow_100_1912"/>
<feBlend mode="normal" in="SourceGraphic" in2="effect1_dropShadow_100_1912" result="shape"/>
</filter>
<linearGradient id="paint0_linear_100_1912" x1="6.7831" y1="3.47262" x2="8.59492" y2="6.61159" gradientUnits="userSpaceOnUse">
<stop stop-color="#FBBF24"/>
<stop offset="0.5" stop-color="#FBBF24"/>
<stop offset="1" stop-color="#F59E0B"/>
</linearGradient>
<linearGradient id="paint1_linear_100_1912" x1="15.1877" y1="3.88936" x2="18.843" y2="10.2171" gradientUnits="userSpaceOnUse">
<stop stop-color="#9CA3AF"/>
<stop offset="0.5" stop-color="#9CA3AF"/>
<stop offset="1" stop-color="#6B7280"/>
</linearGradient>
<linearGradient id="paint2_linear_100_1912" x1="8.33897" y1="3.62204" x2="14.3678" y2="14.0717" gradientUnits="userSpaceOnUse">
<stop stop-color="#F3F7FE"/>
<stop offset="0.5" stop-color="#F3F7FE"/>
<stop offset="1" stop-color="#DEEAFB"/>
</linearGradient>
<clipPath id="clip0_100_1912">
<rect width="8.87788" height="8.87788" fill="white" transform="translate(3.25 0.601074)"/>
</clipPath>
<clipPath id="clip1_100_1912">
<rect width="9.07265" height="5.71174" fill="white" transform="translate(12.8008 3.45435)"/>
</clipPath>
</defs>
</svg>
